<?xml version="1.0" standalone="no"?>
<!DOCTYPE svg PUBLIC "-//W3C//DTD SVG 20010904//EN"
 "http://www.w3.org/TR/2001/REC-SVG-20010904/DTD/svg10.dtd">
<svg version="1.0" xmlns="http://www.w3.org/2000/svg"
 width="128.000000pt" height="128.000000pt" viewBox="0 0 128.000000 128.000000"
 preserveAspectRatio="xMidYMid meet">
<metadata>
Created by potrace 1.16, written by Peter Selinger 2001-2019
</metadata>
<g transform="translate(0.000000,128.000000) scale(0.100000,-0.100000)"
fill="#000000" stroke="none">
<path d="M50 1276 c0 -2 6 -9 14 -15 10 -9 16 -8 26 4 11 13 8 15 -14 15 -14
0 -26 -2 -26 -4z"/>
<path d="M203 1269 c14 -8 22 -8 30 0 8 8 3 11 -18 11 -26 -1 -28 -2 -12 -11z"/>
<path d="M244 1258 l-19 -23 23 19 c21 18 27 26 19 26 -2 0 -12 -10 -23 -22z"/>
<path d="M320 1264 c0 -10 -6 -14 -15 -10 -8 3 -20 0 -27 -7 -29 -27 -52 -42
-44 -29 6 10 3 13 -10 10 -11 -2 -18 -9 -17 -16 2 -9 -3 -9 -22 0 -14 6 -25
16 -25 22 0 6 -5 3 -11 -6 -6 -10 -22 -18 -37 -18 -30 0 -61 -35 -39 -43 9 -4
9 -7 0 -18 -10 -10 -10 -16 0 -27 9 -12 9 -16 0 -19 -7 -3 -13 -10 -13 -17 0
-7 -11 -23 -25 -36 -24 -22 -37 -16 -14 7 8 8 8 13 0 17 -6 4 -11 12 -11 18 0
6 10 3 23 -8 20 -17 20 -16 -2 9 -14 15 -25 27 -26 27 -1 0 -2 -18 -3 -40 -4
-53 5 -66 29 -44 10 9 19 14 19 9 0 -4 7 -1 16 6 9 7 5 -4 -10 -25 -14 -21
-23 -43 -19 -49 4 -6 0 -8 -10 -4 -9 3 -18 -1 -21 -9 -10 -27 -7 -386 3 -379
11 6 34 -31 27 -44 -7 -11 24 -52 35 -46 5 4 9 1 9 -4 0 -6 -6 -11 -12 -11 -9
0 -9 -3 1 -9 12 -7 12 -13 3 -24 -7 -7 -9 -17 -5 -21 9 -9 11 -46 2 -41 -4 3
-10 -3 -13 -12 -4 -9 -1 -20 5 -24 15 -9 20 -48 7 -55 -4 -3 -3 -14 2 -25 7
-13 7 -19 0 -19 -5 0 -10 -14 -10 -31 0 -21 4 -28 13 -23 9 6 9 4 -1 -8 -10
-13 -10 -17 0 -21 9 -3 8 -7 -5 -12 -17 -7 -17 -8 0 -21 14 -10 16 -15 5 -25
-17 -18 -15 -40 3 -33 8 4 15 1 15 -5 0 -7 17 -9 46 -6 40 3 45 2 39 -13 -5
-13 -3 -14 6 -5 6 6 18 9 25 6 23 -9 66 6 57 20 -4 8 -1 7 10 -2 14 -11 20
-11 32 -1 10 9 15 9 15 1 0 -6 7 -11 15 -11 21 0 30 -27 15 -45 -10 -13 -8
-15 14 -15 24 0 25 2 14 20 -11 16 -9 23 11 41 16 15 26 18 34 10 6 -6 15 -7
21 -1 7 5 21 2 36 -10 22 -17 23 -22 12 -40 -11 -18 -10 -20 14 -20 22 0 24 3
15 14 -9 11 -8 17 3 29 8 8 12 18 8 21 -3 4 2 4 12 0 15 -6 17 -4 11 7 -8 12
-6 12 9 0 12 -10 20 -11 27 -4 8 8 17 5 30 -8 24 -24 24 -35 2 -48 -15 -9 -12
-10 16 -11 27 0 32 3 23 12 -16 16 -15 47 2 44 8 -1 22 -8 32 -16 18 -14 18
-14 5 3 -19 24 -12 27 33 17 48 -11 53 -16 38 -40 -11 -18 -9 -20 15 -20 21 0
24 3 15 12 -7 7 -12 20 -12 30 0 14 4 16 25 8 19 -7 23 -6 18 5 -6 17 13 20
23 4 4 -8 8 -8 13 0 5 7 16 5 36 -5 34 -17 34 -17 55 0 29 25 84 10 140 -38
l25 -21 -24 27 -24 28 24 9 c15 5 29 5 37 -1 6 -6 12 -7 12 -2 1 5 9 -2 20
-15 11 -12 17 -27 14 -32 -3 -5 18 -9 45 -9 l51 0 0 51 c0 27 -4 48 -9 45 -4
-3 -15 0 -24 7 -17 13 -40 153 -28 172 9 13 6 85 -4 109 -6 14 -3 23 11 33 17
13 18 15 3 26 -17 12 -19 71 -4 116 3 11 1 22 -5 26 -13 8 -13 45 0 45 6 0 5
10 -2 25 -8 19 -8 28 2 40 10 12 10 18 0 30 -10 12 -10 22 -2 39 6 13 8 27 4
30 -11 11 -11 40 -1 52 7 8 6 14 -1 19 -5 3 -10 13 -10 22 0 13 2 14 18 2 15
-12 16 -12 6 1 -16 21 -25 88 -13 96 5 3 6 10 3 16 -11 18 -13 117 -3 124 6 3
6 11 -1 19 -7 8 -9 19 -5 25 3 5 1 10 -4 10 -6 0 -11 6 -11 13 0 7 -9 18 -21
25 -12 8 -19 9 -15 4 3 -5 -13 -8 -34 -8 -22 0 -40 3 -40 6 0 3 -9 6 -20 6
-11 0 -20 -3 -20 -6 0 -8 -93 -4 -113 5 -10 4 -21 5 -24 1 -3 -3 -12 -1 -20 6
-11 8 -12 7 -7 -6 7 -18 -11 -22 -21 -6 -4 7 -11 8 -18 1 -18 -14 -75 -6 -96
13 -17 15 -35 22 -64 25 -5 1 -5 6 -2 11 4 7 -58 10 -179 10 -164 0 -186 -2
-186 -16z m271 -44 c208 -39 369 -233 369 -445 0 -214 -152 -401 -361 -446
-68 -15 -191 -6 -249 17 -63 25 -152 87 -189 131 -50 59 -91 154 -104 233 -21
138 20 267 120 371 70 74 126 108 213 131 76 20 127 22 201 8z"/>
<path d="M777 1269 c8 -8 16 -8 30 0 16 9 14 10 -11 11 -22 0 -27 -3 -19 -11z"/>
<path d="M918 1268 c9 -9 15 -9 24 0 9 9 7 12 -12 12 -19 0 -21 -3 -12 -12z"/>
<path d="M1058 1268 c9 -9 15 -9 24 0 9 9 7 12 -12 12 -19 0 -21 -3 -12 -12z"/>
<path d="M1190 1276 c0 -2 6 -9 14 -15 10 -9 16 -8 26 4 11 13 8 15 -14 15
-14 0 -26 -2 -26 -4z"/>
<path d="M0 1216 c0 -33 2 -37 15 -26 19 15 19 21 0 46 -13 18 -14 16 -15 -20z"/>
<path d="M770 1229 c0 -5 5 -7 10 -4 6 3 10 8 10 11 0 2 -4 4 -10 4 -5 0 -10
-5 -10 -11z"/>
<path d="M1264 1219 c-3 -6 -1 -16 5 -22 8 -8 11 -5 11 11 0 24 -5 28 -16 11z"/>
<path d="M1265 1071 c-3 -5 -1 -12 5 -16 5 -3 10 1 10 9 0 18 -6 21 -15 7z"/>
<path d="M1265 931 c-3 -5 -1 -12 5 -16 5 -3 10 1 10 9 0 18 -6 21 -15 7z"/>
<path d="M1265 791 c-3 -5 -1 -12 5 -16 5 -3 10 1 10 9 0 18 -6 21 -15 7z"/>
<path d="M1267 655 c-4 -8 -2 -17 3 -20 6 -4 10 3 10 14 0 25 -6 27 -13 6z"/>
<path d="M1255 620 c10 -11 20 -20 23 -20 3 0 -3 9 -13 20 -10 11 -20 20 -23
20 -3 0 3 -9 13 -20z"/>
<path d="M0 502 c0 -47 4 -51 20 -22 8 16 7 26 -5 42 -15 22 -15 21 -15 -20z"/>
<path d="M1257 511 c-16 -17 -16 -19 5 -37 l23 -19 -20 24 c-18 21 -18 24 -2
18 12 -5 17 -1 17 13 0 24 0 24 -23 1z"/>
<path d="M0 360 c0 -32 1 -33 17 -17 16 16 16 18 0 34 -16 16 -17 15 -17 -17z"/>
<path d="M1264 369 c-3 -6 -1 -16 5 -22 8 -8 11 -5 11 11 0 24 -5 28 -16 11z"/>
<path d="M0 226 c0 -33 2 -37 15 -26 19 15 19 21 0 46 -13 18 -14 16 -15 -20z"/>
<path d="M1257 242 c-15 -17 -15 -19 3 -35 19 -16 20 -16 20 3 0 14 -5 18 -17
13 -16 -6 -16 -4 1 15 11 12 17 22 14 22 -3 0 -12 -8 -21 -18z"/>
<path d="M0 75 c0 -19 2 -35 5 -35 10 0 24 40 19 54 -11 28 -24 17 -24 -19z"/>
<path d="M66 19 c-19 -19 -19 -19 13 -19 30 0 32 2 20 18 -7 9 -13 18 -14 18
0 1 -9 -7 -19 -17z"/>
<path d="M212 20 c-11 -18 -9 -20 20 -20 23 0 29 3 19 9 -7 5 -16 13 -20 19
-4 7 -11 4 -19 -8z"/>
<path d="M1034 18 l-19 -23 23 19 c21 18 27 26 19 26 -2 0 -12 -10 -23 -22z"/>
<path d="M910 15 c-11 -13 -8 -15 15 -15 23 0 26 2 15 15 -7 8 -14 15 -15 15
-1 0 -8 -7 -15 -15z"/>
<path d="M1055 10 c-3 -5 3 -10 15 -10 12 0 18 5 15 10 -3 6 -10 10 -15 10 -5
0 -12 -4 -15 -10z"/>
</g>
</svg>
