<?xml version="1.0" standalone="no"?>
<!DOCTYPE svg PUBLIC "-//W3C//DTD SVG 20010904//EN"
 "http://www.w3.org/TR/2001/REC-SVG-20010904/DTD/svg10.dtd">
<svg version="1.0" xmlns="http://www.w3.org/2000/svg"
 width="128.000000pt" height="128.000000pt" viewBox="0 0 128.000000 128.000000"
 preserveAspectRatio="xMidYMid meet">

<g transform="translate(0.000000,128.000000) scale(0.100000,-0.100000)"
fill="#000000" stroke="none">
<path d="M491 991 c-11 -11 -27 -45 -37 -76 -13 -42 -23 -57 -40 -61 -32 -8
-44 2 -44 36 0 49 -39 70 -130 70 -91 0 -127 -19 -132 -72 -3 -28 -8 -33 -38
-39 -71 -15 -70 -11 -70 -396 l0 -345 29 -29 29 -29 582 0 582 0 29 29 29 29
0 345 c0 331 -1 345 -20 370 -13 16 -33 27 -53 29 -28 3 -32 7 -35 35 -5 48
-42 73 -109 73 -65 0 -103 -29 -103 -80 0 -25 -4 -30 -24 -30 -30 0 -39 12
-60 77 -26 80 -35 83 -213 83 -138 0 -155 -2 -172 -19z m316 -43 c6 -7 18 -37
27 -65 26 -80 35 -83 217 -83 120 0 159 -3 168 -14 8 -9 11 -108 9 -342 l-3
-329 -585 0 -585 0 -3 329 c-2 234 1 333 9 342 9 11 52 14 194 14 167 0 184 2
208 20 13 11 28 32 32 47 3 15 13 42 20 60 l14 33 134 0 c96 0 137 -4 144 -12z
m-499 -50 c7 -7 12 -20 12 -30 0 -16 -10 -18 -80 -18 -70 0 -80 2 -80 18 0 31
22 42 80 42 31 0 61 -5 68 -12z m796 6 c9 -3 16 -17 16 -30 0 -22 -4 -24 -50
-24 -36 0 -52 4 -56 15 -13 34 42 57 90 39z"/>
<path d="M594 895 c-13 -34 3 -45 69 -45 45 0 68 5 77 15 23 28 -5 45 -77 45
-47 0 -65 -4 -69 -15z"/>
<path d="M174 740 c-91 -36 -79 -185 16 -204 63 -12 130 42 130 104 0 37 -30
81 -65 96 -39 16 -51 16 -81 4z m82 -75 c15 -23 15 -27 0 -50 -28 -42 -96 -24
-96 25 0 49 68 67 96 25z"/>
<path d="M620 743 c-118 -20 -206 -105 -236 -226 -36 -145 40 -282 186 -338
61 -23 119 -24 190 -3 78 23 162 109 186 189 41 142 -22 288 -149 349 -52 25
-130 38 -177 29z m138 -69 c87 -36 145 -124 146 -220 0 -219 -259 -321 -411
-162 -43 45 -63 96 -63 163 0 133 101 235 233 235 32 0 74 -7 95 -16z"/>
<path d="M595 626 c-94 -41 -139 -150 -100 -243 30 -72 93 -113 170 -113 79 0
149 45 174 113 25 66 4 164 -46 209 -49 45 -139 60 -198 34z m142 -62 c33 -21
63 -73 63 -109 0 -112 -141 -176 -221 -99 -117 112 23 297 158 208z"/>
<path d="M1020 734 c-11 -12 -10 -18 3 -32 16 -15 18 -15 34 0 13 14 14 20 3
32 -7 9 -16 16 -20 16 -4 0 -13 -7 -20 -16z"/>
</g>
</svg>
