<?xml version="1.0" standalone="no"?>
<!DOCTYPE svg PUBLIC "-//W3C//DTD SVG 20010904//EN"
 "http://www.w3.org/TR/2001/REC-SVG-20010904/DTD/svg10.dtd">
<svg version="1.0" xmlns="http://www.w3.org/2000/svg"
 width="256.000000pt" height="256.000000pt" viewBox="0 0 256.000000 256.000000"
 preserveAspectRatio="xMidYMid meet">

<g transform="translate(0.000000,256.000000) scale(0.100000,-0.100000)"
fill="#000000" stroke="none">
<path d="M1240 2330 c-77 -14 -146 -75 -169 -149 -15 -52 -15 -830 0 -886 7
-25 29 -58 58 -86 37 -37 57 -49 102 -59 99 -22 197 23 247 114 15 27 17 80
20 455 2 363 1 430 -13 470 -32 98 -139 159 -245 141z"/>
<path d="M693 1396 c-26 -22 -28 -29 -25 -88 10 -259 208 -499 465 -564 l67
-16 0 -234 c0 -230 0 -233 23 -260 33 -37 81 -37 114 0 23 27 23 30 23 261 l0
235 28 6 c84 19 113 29 177 62 98 50 211 164 259 260 43 86 66 167 69 250 2
52 -1 64 -22 86 -29 31 -69 34 -101 8 -17 -14 -25 -38 -36 -107 -18 -116 -60
-203 -133 -276 -54 -53 -148 -108 -213 -123 l-28 -6 0 65 c0 57 -3 69 -25 90
-15 16 -36 25 -55 25 -19 0 -40 -9 -55 -25 -22 -21 -25 -33 -25 -90 l0 -65
-27 6 c-71 17 -153 64 -211 122 -79 76 -118 157 -134 273 -9 67 -16 89 -35
107 -31 29 -65 28 -100 -2z"/>
</g>
</svg>
